<?xml version="1.0" encoding="UTF-8" standalone="no"?>
<!-- Created with Inkscape (http://www.inkscape.org/) -->

<svg
   xmlns:dc="http://purl.org/dc/elements/1.1/"
   xmlns:cc="http://creativecommons.org/ns#"
   xmlns:rdf="http://www.w3.org/1999/02/22-rdf-syntax-ns#"
   xmlns:svg="http://www.w3.org/2000/svg"
   xmlns="http://www.w3.org/2000/svg"
   xmlns:sodipodi="http://sodipodi.sourceforge.net/DTD/sodipodi-0.dtd"
   xmlns:inkscape="http://www.inkscape.org/namespaces/inkscape"
   width="128"
   height="128"
   id="svg3917"
   version="1.1"
   inkscape:version="0.48.5 r10040"
   sodipodi:docname="drawing2.svg">
  <defs
     id="defs3" />
  <sodipodi:namedview
     inkscape:document-units="mm"
     id="base"
     pagecolor="#ffffff"
     bordercolor="#666666"
     borderopacity="1.0"
     inkscape:pageopacity="0.0"
     inkscape:pageshadow="2"
     inkscape:zoom="4.96875"
     inkscape:cx="63.798743"
     inkscape:cy="45.935624"
     inkscape:current-layer="layer1"
     showgrid="false"
     units="px"
     inkscape:window-width="1600"
     inkscape:window-height="834"
     inkscape:window-x="0"
     inkscape:window-y="27"
     inkscape:window-maximized="1" />
  <metadata
     id="metadata4">
    <rdf:RDF>
      <cc:Work
         rdf:about="">
        <dc:format>image/svg+xml</dc:format>
        <dc:type
           rdf:resource="http://purl.org/dc/dcmitype/StillImage" />
        <dc:title />
      </cc:Work>
    </rdf:RDF>
  </metadata>
  <g
     inkscape:label="Layer 1"
     inkscape:groupmode="layer"
     id="layer1"
     transform="translate(0,-924.36218)">
    <g
       id="g3099">
      <path
         transform="matrix(1.5178998,0,0,1.5178998,-24.439145,873.03998)"
         d="m 100.42767,75.974846 a 42.163521,42.163521 0 1 1 -84.327038,0 42.163521,42.163521 0 1 1 84.327038,0 z"
         sodipodi:ry="42.163521"
         sodipodi:rx="42.163521"
         sodipodi:cy="75.974846"
         sodipodi:cx="58.264153"
         id="path3923-4-0"
         style="opacity:0.92468620999999995;fill:#ffffff;fill-opacity:1;stroke:none"
         sodipodi:type="arc" />
      <path
         transform="matrix(1.5060412,0,0,1.5060412,-23.748214,873.94093)"
         d="m 100.42767,75.974846 a 42.163521,42.163521 0 1 1 -84.327038,0 42.163521,42.163521 0 1 1 84.327038,0 z"
         sodipodi:ry="42.163521"
         sodipodi:rx="42.163521"
         sodipodi:cy="75.974846"
         sodipodi:cx="58.264153"
         id="path3923-4-3-6-7-5"
         style="opacity:0.92468620999999995;fill:#f5f5f5;fill-opacity:1;stroke:none"
         sodipodi:type="arc" />
      <path
         transform="matrix(1.4941826,0,0,1.4941826,-23.057283,874.84189)"
         d="m 100.42767,75.974846 a 42.163521,42.163521 0 1 1 -84.327038,0 42.163521,42.163521 0 1 1 84.327038,0 z"
         sodipodi:ry="42.163521"
         sodipodi:rx="42.163521"
         sodipodi:cy="75.974846"
         sodipodi:cx="58.264153"
         id="path3923-4"
         style="opacity:0.92468620999999995;fill:#dcdcdc;fill-opacity:1;stroke:none"
         sodipodi:type="arc" />
      <path
         transform="matrix(1.482324,0,0,1.482324,-22.366352,875.74284)"
         d="m 100.42767,75.974846 a 42.163521,42.163521 0 1 1 -84.327038,0 42.163521,42.163521 0 1 1 84.327038,0 z"
         sodipodi:ry="42.163521"
         sodipodi:rx="42.163521"
         sodipodi:cy="75.974846"
         sodipodi:cx="58.264153"
         id="path3923-4-3-6-7"
         style="opacity:0.92468620999999995;fill:#d3d3d3;fill-opacity:1;stroke:none"
         sodipodi:type="arc" />
      <path
         transform="matrix(1.4704654,0,0,1.4704654,-21.67542,876.6438)"
         d="m 100.42767,75.974846 a 42.163521,42.163521 0 1 1 -84.327038,0 42.163521,42.163521 0 1 1 84.327038,0 z"
         sodipodi:ry="42.163521"
         sodipodi:rx="42.163521"
         sodipodi:cy="75.974846"
         sodipodi:cx="58.264153"
         id="path3923-4-3"
         style="opacity:0.92468620999999995;fill:#c0c0c0;fill-opacity:1;stroke:none"
         sodipodi:type="arc" />
      <path
         transform="matrix(1.4586068,0,0,1.4586068,-20.984489,877.54475)"
         d="m 100.42767,75.974846 a 42.163521,42.163521 0 1 1 -84.327038,0 42.163521,42.163521 0 1 1 84.327038,0 z"
         sodipodi:ry="42.163521"
         sodipodi:rx="42.163521"
         sodipodi:cy="75.974846"
         sodipodi:cx="58.264153"
         id="path3923-4-3-6"
         style="opacity:0.92468620999999995;fill:#a9a9a9;fill-opacity:1;stroke:none"
         sodipodi:type="arc" />
      <path
         transform="matrix(1.4467483,0,0,1.4467483,-20.293564,878.4457)"
         d="m 100.42767,75.974846 a 42.163521,42.163521 0 1 1 -84.327038,0 42.163521,42.163521 0 1 1 84.327038,0 z"
         sodipodi:ry="42.163521"
         sodipodi:rx="42.163521"
         sodipodi:cy="75.974846"
         sodipodi:cx="58.264153"
         id="path3923"
         style="opacity:0.92468621;fill:#2ab1e0;fill-opacity:1;stroke:none"
         sodipodi:type="arc" />
      <g
         id="g3094">
        <path
           style="opacity:0.92468620999999995;fill:#666666;fill-opacity:1;stroke:none"
           d="m 69.693935,943.71756 -44.947016,0.17633 c -2.714721,0.0104 -4.895963,2.01877 -4.885245,4.49645 l 0.110401,24.47228 c 0.01073,2.47768 2.198124,4.46902 4.912846,4.45867 l 2.884227,-0.0126 -0.745207,7.22959 6.265258,-4.33271 4.236639,-2.93467 32.319902,-0.12595 c 2.714723,-0.0103 4.895959,-2.01878 4.885242,-4.49645 l -0.110397,-24.47229 c -0.01076,-2.47768 -2.211923,-4.46902 -4.92665,-4.45867 z"
           id="rect3002"
           inkscape:connector-curvature="0" />
        <text
           xml:space="preserve"
           style="font-size:18.16345215000000124px;font-style:normal;font-weight:normal;line-height:125%;letter-spacing:0px;word-spacing:0px;fill:#98fc66;fill-opacity:1;stroke:none;font-family:Sans"
           x="32.483536"
           y="969.76404"
           id="text3082"
           sodipodi:linespacing="125%"><tspan
             sodipodi:role="line"
             id="tspan3084"
             x="32.483536"
             y="969.76404"
             style="font-size:25.42883110000000002px;font-style:normal;font-weight:bold;fill:#98fc66;fill-opacity:1;-inkscape-font-specification:Sans Bold">#!</tspan></text>
      </g>
      <g
         id="g3089">
        <path
           style="fill:#f2f2f2;fill-opacity:1;stroke:none"
           d="m 41.921125,979.94553 65.533105,0.22474 c 3.95809,0.013 7.13836,2.573 7.12273,5.73087 l -0.16097,31.19066 c -0.0156,3.1578 -3.20488,5.6958 -7.16296,5.6826 l -4.20523,-0.016 1.08651,9.2144 -9.13479,-5.5222 -6.177057,-3.7403 -47.122668,-0.1605 c -3.958083,-0.013 -7.13835,-2.573 -7.122724,-5.7309 l 0.160965,-31.19061 c 0.01564,-3.15783 3.225003,-5.69585 7.183089,-5.68266 z"
           id="rect3002-3"
           inkscape:connector-curvature="0" />
        <text
           xml:space="preserve"
           style="font-size:19.98594665999999975px;font-style:normal;font-weight:normal;line-height:125%;letter-spacing:0px;word-spacing:0px;fill:#666666;fill-opacity:1;stroke:none;font-family:Sans"
           x="39.481998"
           y="1010.366"
           id="text3086"
           sodipodi:linespacing="125%"><tspan
             sodipodi:role="line"
             id="tspan3088"
             x="39.481998"
             y="1010.366"
             style="font-size:35.97470473999999996px;font-style:italic;font-variant:normal;font-weight:normal;font-stretch:normal;fill:#666666;font-family:Salem;-inkscape-font-specification:Salem Italic">مرحبا</tspan></text>
      </g>
    </g>
  </g>
</svg>
